<?xml version="1.0" encoding="utf-8"?>

<!-- Uploaded to: SVG Repo, www.svgrepo.com, Generator: SVG Repo Mixer Tools -->
<svg version="1.1" id="Icons" xmlns="http://www.w3.org/2000/svg" xmlns:xlink="http://www.w3.org/1999/xlink" 
	 viewBox="0 0 32 32" xml:space="preserve">
<style type="text/css">
	.st0{fill:none;stroke:#000000;stroke-width:2;stroke-linecap:round;stroke-linejoin:round;stroke-miterlimit:10;}
</style>
<path d="M8,16c-4.4,0-8,3.6-8,8s3.6,8,8,8s8-3.6,8-8S12.4,16,8,16z M11,25H5c-0.6,0-1-0.4-1-1s0.4-1,1-1h6c0.6,0,1,0.4,1,1
	S11.6,25,11,25z"/>
<path d="M29,8h-8.9l-2.3-3.5C17.7,4.2,17.3,4,17,4H7C5.3,4,4,5.3,4,7v7.8C5.2,14.3,6.6,14,8,14c5.5,0,10,4.5,10,10
	c0,1.4-0.3,2.8-0.8,4H29c1.7,0,3-1.3,3-3V11C32,9.3,30.7,8,29,8z M30,23.6L21.4,10H29c0.6,0,1,0.4,1,1V23.6z"/>
</svg>